# xmcd CD database file
#
# Track frame offsets:
#       150
#       12336
#       22064
#       34646
#       46244
#       56330
#       66871
#       76812
#       89155
#       100053
#       111873
#       121752
#       133650
#       144851
#       152628
#       164185
#
# Disc length: 2296 seconds
#
# Revision: 1
# Processed by: cddbd v1.5.2PL0 Copyright (c) Steve Scherf et al.
# Submitted via: jack 3.1.1
#
DISCID=d008f610
DTITLE=Johnny Cash - I Walk The Line
DYEAR=2010
DGENRE=Blues
TTITLE0=01 - I Walk The Line
TTITLE1=02 - Ballad Of A Teenage Queen
TTITLE2=03 - Folsom Prison Blues
TTITLE3=04 - So Doggone Lonesome
TTITLE4=05 - There You Go
TTITLE5=06 - Train Of Love
TTITLE6=07 - Get Rhythm
TTITLE7=08 - Next In Line
TTITLE8=09 - Don't Make Me Go
TTITLE9=10 - Home Of The Blues
TTITLE10=11 - Hey Porter
TTITLE11=12 - You're The Nearest Thing To Heaven
TTITLE12=13 - Big River
TTITLE13=14 - I Can't Help It
TTITLE14=15 - Doin' My Time
TTITLE15=16 - Country Boy
EXTD=
EXTT0=
EXTT1=
EXTT2=
EXTT3=
EXTT4=
EXTT5=
EXTT6=
EXTT7=
EXTT8=
EXTT9=
EXTT10=
EXTT11=
EXTT12=
EXTT13=
EXTT14=
EXTT15=
PLAYORDER=
